<svg class="animated" id="freepik_stories-curiosity" xmlns="http://www.w3.org/2000/svg" viewBox="0 0 750 500" version="1.1" xmlns:xlink="http://www.w3.org/1999/xlink" xmlns:svgjs="http://svgjs.com/svgjs"><style>svg#freepik_stories-curiosity:not(.animated) .animable {opacity: 0;}svg#freepik_stories-curiosity.animated #freepik--Character--inject-53 {animation: 6s Infinite  linear floating;animation-delay: 0s;}svg#freepik_stories-curiosity.animated #freepik--door-1--inject-53 {animation: 6s Infinite  linear shake;animation-delay: 0s;}            @keyframes floating {                0% {                    opacity: 1;                    transform: translateY(0px);                }                50% {                    transform: translateY(-10px);                }                100% {                    opacity: 1;                    transform: translateY(0px);                }            }                    @keyframes shake {                10%, 90% {                    transform: translate3d(-1px, 0, 0);                  }                  20%, 80% {                    transform: translate3d(2px, 0, 0);                  }                  30%, 50%, 70% {                    transform: translate3d(-4px, 0, 0);                  }                  40%, 60% {                    transform: translate3d(4px, 0, 0);                  }            }        </style><g id="freepik--background-simple--inject-53" class="animable" style="transform-origin: 385.671px 259.105px;"><path d="M630.05,462.66a259.84,259.84,0,0,0-33.18-7.44c-50.91-7.81-168.25-10.53-225.12-8.12-73.83,3.12-307.81,55.41-325.48,7.58S33.79,56.41,68.1,49.13s156,21.36,227.74,23.44,243.33-25.52,314-28.64,77,8.32,93.59,69.67,34.31,263.09,31.19,309.88C732,463.26,656.48,470.33,630.05,462.66Z" style="fill: rgb(186, 157, 4); transform-origin: 385.671px 259.105px;" id="elphb6ztknih" class="animable"></path><g id="elmrpdxvxqaaj"><path d="M630.05,462.66a259.84,259.84,0,0,0-33.18-7.44c-50.91-7.81-168.25-10.53-225.12-8.12-73.83,3.12-307.81,55.41-325.48,7.58S33.79,56.41,68.1,49.13s156,21.36,227.74,23.44,243.33-25.52,314-28.64,77,8.32,93.59,69.67,34.31,263.09,31.19,309.88C732,463.26,656.48,470.33,630.05,462.66Z" style="fill: rgb(255, 255, 255); opacity: 0.8; transform-origin: 385.671px 259.105px;" class="animable"></path></g></g><g id="freepik--doors-2--inject-53" class="animable" style="transform-origin: 366.99px 236.6px;"><polyline points="494.55 186.83 442.92 70.27 329.77 111.19 435.47 349.51 549.42 310.7 496.79 191.87" style="fill: none; stroke: rgb(38, 50, 56); stroke-miterlimit: 10; transform-origin: 439.595px 209.89px;" id="elf4sfmtxl1n9" class="animable"></polyline><polyline points="376.72 109.08 341.68 121.91 384.28 217.98 484.91 180.99 442.29 85.07 383.88 106.46" style="fill: none; stroke: rgb(38, 50, 56); stroke-miterlimit: 10; transform-origin: 413.295px 151.525px;" id="elefgj8rkok4k" class="animable"></polyline><polyline points="403.21 231.87 392.23 235.91 436.05 334.69 537.6 299.59 492.87 198.91 409.4 229.59" style="fill: none; stroke: rgb(38, 50, 56); stroke-miterlimit: 10; transform-origin: 464.915px 266.8px;" id="el67bgm0yu9n9" class="animable"></polyline><circle cx="485.5" cy="190.89" r="7.16" style="fill: none; stroke: rgb(38, 50, 56); stroke-miterlimit: 10; transform-origin: 485.5px 190.89px;" id="el2d5vomw6x4w" class="animable"></circle><circle cx="485.5" cy="190.89" r="2.08" style="fill: none; stroke: rgb(38, 50, 56); stroke-miterlimit: 10; transform-origin: 485.5px 190.89px;" id="eloco4d88jrk" class="animable"></circle><polyline points="672.57 262.81 701.53 252.94 595.03 12.51 572.57 20.64" style="fill: none; stroke: rgb(38, 50, 56); stroke-miterlimit: 10; transform-origin: 637.05px 137.66px;" id="elikqecnrfso" class="animable"></polyline><polyline points="563.13 24.05 481.88 53.44 587.58 291.76 663.17 266.01" style="fill: none; stroke: rgb(38, 50, 56); stroke-miterlimit: 10; transform-origin: 572.525px 157.905px;" id="elappphkouzjh" class="animable"></polyline><polygon points="637.02 123.24 594.4 27.32 493.79 64.16 536.39 160.23 637.02 123.24" style="fill: none; stroke: rgb(38, 50, 56); stroke-miterlimit: 10; transform-origin: 565.405px 93.775px;" id="elvyx662e3nx" class="animable"></polygon><polyline points="582.16 164.25 544.34 178.15 588.16 276.94 689.71 241.83 644.98 141.16 593.49 160.09" style="fill: none; stroke: rgb(38, 50, 56); stroke-miterlimit: 10; transform-origin: 617.025px 209.05px;" id="eltmrp84bhnt" class="animable"></polyline><circle cx="637.61" cy="133.14" r="7.16" style="fill: none; stroke: rgb(38, 50, 56); stroke-miterlimit: 10; transform-origin: 637.61px 133.14px;" id="elwturiperq" class="animable"></circle><circle cx="637.61" cy="133.14" r="2.08" style="fill: none; stroke: rgb(38, 50, 56); stroke-miterlimit: 10; transform-origin: 637.61px 133.14px;" id="elp8u5dojde9d" class="animable"></circle><polyline points="122.21 429.15 136.2 460.69 248.04 422.59 223.57 367.34" style="fill: none; stroke: rgb(38, 50, 56); stroke-miterlimit: 10; transform-origin: 185.125px 414.015px;" id="eleugmh7npoj4" class="animable"></polyline><polyline points="220.49 360.39 143.51 186.6 32.45 226.77 120.2 424.62" style="fill: none; stroke: rgb(38, 50, 56); stroke-miterlimit: 10; transform-origin: 126.47px 305.61px;" id="elx72ai0z53rh" class="animable"></polyline><polyline points="110.14 322.69 184.72 295.28 142.89 201.13 44.13 237.29 85.95 331.59 105.63 324.35" style="fill: none; stroke: rgb(38, 50, 56); stroke-miterlimit: 10; transform-origin: 114.425px 266.36px;" id="el48nyvldb8q7" class="animable"></polyline><polygon points="192.53 312.87 93.76 349.18 136.76 446.15 236.44 411.69 192.53 312.87" style="fill: none; stroke: rgb(38, 50, 56); stroke-miterlimit: 10; transform-origin: 165.1px 379.51px;" id="elyzujrjg302" class="animable"></polygon><path d="M192.33,305a7,7,0,1,1-7-7A7,7,0,0,1,192.33,305Z" style="fill: none; stroke: rgb(38, 50, 56); stroke-miterlimit: 10; transform-origin: 185.33px 305px;" id="el6iuq8yjdf85" class="animable"></path><path d="M187.34,305a2,2,0,1,1-2-2A2,2,0,0,1,187.34,305Z" style="fill: none; stroke: rgb(38, 50, 56); stroke-miterlimit: 10; transform-origin: 185.34px 305px;" id="elmoz2vzdbkc8" class="animable"></path></g><g id="freepik--Clouds--inject-53" class="animable" style="transform-origin: 368.065px 259.104px;"><path d="M668.33,421.46s-5.18-36.25-34.18-41.43S602,401.78,597.89,403.85s-15.54-12.43-24.86-6.21-14.51,19.68-14.51,19.68-8.28-7.25-15.53-2.07-16.58,11.39-16.58,11.39-12.43-5.18-18.65-3.1-13.46,8.28-13.46,8.28H712.88s-5.18-14.5-16.58-19.68S671.44,426.64,668.33,421.46Z" style="fill: rgb(255, 255, 255); stroke: rgb(38, 50, 56); stroke-miterlimit: 10; transform-origin: 603.59px 405.595px;" id="elh332a2rg2t6" class="animable"></path><path d="M143.71,166.93s-3.59-25.1-23.67-28.69-22.24,15.06-25.1,16.5-10.76-8.61-17.22-4.31-10,13.63-10,13.63-5.74-5-10.76-1.43-11.48,7.89-11.48,7.89-8.6-3.59-12.91-2.16-9.32,5.74-9.32,5.74H174.55s-3.59-10-11.48-13.63S145.86,170.52,143.71,166.93Z" style="fill: rgb(255, 255, 255); stroke: rgb(38, 50, 56); stroke-miterlimit: 10; transform-origin: 98.9px 155.941px;" id="elh5ql3bxvei4" class="animable"></path><path d="M671.68,75.29S668.21,51,648.78,47.53s-21.51,14.57-24.29,16-10.4-8.33-16.65-4.16-9.71,13.18-9.71,13.18-5.56-4.86-10.41-1.39-11.1,7.64-11.1,7.64-8.33-3.47-12.49-2.08-9,5.55-9,5.55H701.52S698.05,72.51,690.41,69,673.76,78.76,671.68,75.29Z" style="fill: rgb(255, 255, 255); stroke: rgb(38, 50, 56); stroke-miterlimit: 10; transform-origin: 628.325px 64.6788px;" id="elk1hjxh2skeh" class="animable"></path><path d="M303.45,465.1s-3-21-19.81-24-18.61,12.61-21,13.81-9-7.2-14.41-3.6-8.4,11.41-8.4,11.41-4.81-4.21-9-1.2-9.6,6.6-9.6,6.6-7.21-3-10.81-1.8-7.81,4.8-7.81,4.8H329.27s-3-8.4-9.6-11.41S305.26,468.1,303.45,465.1Z" style="fill: rgb(255, 255, 255); stroke: rgb(38, 50, 56); stroke-miterlimit: 10; transform-origin: 265.94px 455.919px;" id="elj8sv6o3tamp" class="animable"></path><path d="M209.72,77s-3-21-19.81-24-18.62,12.61-21,13.81-9-7.2-14.41-3.6-8.41,11.41-8.41,11.41-4.8-4.21-9-1.2-9.61,6.6-9.61,6.6-7.2-3-10.81-1.8-7.8,4.8-7.8,4.8H235.54s-3-8.4-9.61-11.41S211.52,80,209.72,77Z" style="fill: rgb(255, 255, 255); stroke: rgb(38, 50, 56); stroke-miterlimit: 10; transform-origin: 172.205px 67.8189px;" id="eldujstmk40ap" class="animable"></path></g><g id="freepik--Character--inject-53" class="animable" style="transform-origin: 454.72px 323.911px;"><path d="M511,340.06c-.25-3.05-1-11-1-11l-44-6-1.14,2.33-3.12,8.28s-42.55,6.58-57,13.5a293.87,293.87,0,0,0,4.35,33.14c3.09,14.84,7.79,35.21,7.79,35.21l-2.57,1.84-.15,4s-4.56,6.29-8,9-6.11,3.52-5.05,4.7,5.55,1.41,10.77.26,11-4.22,11.82-4.59,4.27-1.56,4.27-1.56l-13.13,18.7-2.28.13-2.36,2.13a88.48,88.48,0,0,1-12.16-2.51c-5.51-1.66-6.49-1.82-6.11.51s5.15,8.39,10.54,12.29,10.86,7.32,10.86,7.32,1.76,1.54,3.35,1.05,5.49-8.9,5.49-8.9,4.23-4.33,6.26-6a51.59,51.59,0,0,0,6.15-6.78c2.19-2.66,18.72-16,24.36-27.41s8.12-18.78,10.73-20.86,31.09-30.08,35-34.21S511.28,343.12,511,340.06ZM445.17,396.6c-1.95,2.69-12.83,23-12.83,23s-1-4.69-.83-5.67-1.8-2.81-1.8-2.81l-1.53-48.76,34,4.33S447.13,393.9,445.17,396.6Z" style="fill: rgb(38, 50, 56); stroke: rgb(38, 50, 56); stroke-miterlimit: 10; transform-origin: 451.439px 395.973px;" id="el2o5gxwy178w" class="animable"></path><path d="M448.15,188.47s-2.22-1.1-4.4-2.38-1.94.6-.53,2.12a48.86,48.86,0,0,0,5.72,4.44s-4.28-.88-3.89.1,3.65,2.45,7.69,2.56L450,188.4Z" style="fill: rgb(255, 255, 255); stroke: rgb(38, 50, 56); stroke-miterlimit: 10; transform-origin: 447.438px 190.488px;" id="ele2olndsxfmq" class="animable"></path><path d="M463.24,208.83s-1.76-11.72-2.93-13.57-4.74-4.83-5.55-5.52-4.13-4-4.13-4a34.88,34.88,0,0,0-2.26-5.35c-1.41-2.63-2.54-1.34-2.39,1.08s2.17,7,2.17,7,2.64,4.12,3.06,6a40.38,40.38,0,0,1,.14,7,75.07,75.07,0,0,1-6.83-3.33c-2-1.26-3.23-.54-3,1.17s2.7,2.65,3.48,3.52,4.28,3.1,6.23,4.71a14.54,14.54,0,0,1,3.27,4.78Z" style="fill: rgb(255, 255, 255); stroke: rgb(38, 50, 56); stroke-miterlimit: 10; transform-origin: 452.366px 195.628px;" id="elsqq9u896ua" class="animable"></path><path d="M463.24,208.83s-6.37.62-8.31,2.32L453,212.86l2.22,5.53,10.19-3.67Z" style="fill: rgb(186, 157, 4); stroke: rgb(38, 50, 56); stroke-miterlimit: 10; transform-origin: 459.205px 213.61px;" id="eldr04pv4sez7" class="animable"></path><path d="M465.94,212.6s-4.55.72-7.24,2.49-5.13,3.22-4.77,4.38,11.27,29,12.86,31.62,7.06,13.14,7.06,13.14l9.48-13.93Z" style="fill: rgb(186, 157, 4); stroke: rgb(38, 50, 56); stroke-miterlimit: 10; transform-origin: 468.612px 238.415px;" id="elfxw91w3ruz" class="animable"></path><path d="M471.44,257.1s-1,1.65-3.13,13.44-1,28.34-.67,31.74-1.94,13.63-1.94,13.63-4.26,8.4-2.24,10.86,14,5,25,6.54,24.82-1.53,25.24-3.13-.28-5.66-.28-5.66-2.85-30.65-6-46.19-12.54-29.82-12.54-29.82Z" style="fill: rgb(186, 157, 4); stroke: rgb(38, 50, 56); stroke-miterlimit: 10; transform-origin: 488.375px 291.12px;" id="elpwozoduhd5k" class="animable"></path><polygon points="471.26 254.49 465.92 255.58 469.65 262.42 473.7 256.26 471.26 254.49" style="fill: rgb(186, 157, 4); stroke: rgb(38, 50, 56); stroke-miterlimit: 10; transform-origin: 469.81px 258.455px;" id="el9tdk1tfk6ys" class="animable"></polygon><polygon points="465.92 255.58 465.07 261.66 468.14 259.59 465.92 255.58" style="fill: rgb(186, 157, 4); stroke: rgb(38, 50, 56); stroke-miterlimit: 10; transform-origin: 466.605px 258.62px;" id="eljm3601ut9qe" class="animable"></polygon><path d="M484.73,207.66s-10.27,3.57-11.12,5.64-1.45,3.67-2.24,4.38-8.65,1-8.45,2.86a21.88,21.88,0,0,0,1.27,4.62s-3.74,15.52-1.73,15.68a45.16,45.16,0,0,1,6.53,1.58l3.68,9.72,20.6-5.55.54-4.33a19.87,19.87,0,0,0,11.63-7.76c4.64-6.54,4.19-14.09-.67-20.66S494.34,207,494.34,207s1.1-3.55-1.93-3.71S482.19,203.51,484.73,207.66Z" style="fill: rgb(255, 255, 255); stroke: rgb(38, 50, 56); stroke-miterlimit: 10; transform-origin: 485.273px 227.701px;" id="elodmrc608mx" class="animable"></path><path d="M494.34,207s1.1-3.55-1.93-3.71-10.22.19-7.68,4.34c0,0,7.8,3.15,7.56,4.64s-5.81,1.25-5.78,3.12,1.31,6.5.51,7.22-3.93,2.24-3.27,3.36a2.86,2.86,0,0,0,2.37,1.07s5.64-2.29,5.95,0-.95,5.79-2.66,6.87a9.56,9.56,0,0,1-3.44,1.3s-.76,2.59,2.27,4.79a11.09,11.09,0,0,0,5.57,2.27,19.87,19.87,0,0,0,11.63-7.76c4.64-6.54,4.19-14.09-.67-20.66S494.34,207,494.34,207Z" style="fill: rgb(38, 50, 56); stroke: rgb(38, 50, 56); stroke-miterlimit: 10; transform-origin: 496.17px 222.765px;" id="elit3sveipevk" class="animable"></path><path d="M475.19,214.07a3.17,3.17,0,0,1,3.64,2.64" style="fill: none; stroke: rgb(38, 50, 56); stroke-miterlimit: 10; transform-origin: 477.01px 215.37px;" id="el7tlrur1djg5" class="animable"></path><path d="M475.07,219.59c-.54.64-1.22.95-1.52.69s-.11-1,.43-1.62,1.22-.94,1.52-.69S475.61,219,475.07,219.59Z" style="fill: rgb(38, 50, 56); transform-origin: 474.525px 219.128px;" id="eli9fvfuwcy4" class="animable"></path><path d="M465.57,228.68s3.73,1.07,5.63-.76" style="fill: none; stroke: rgb(38, 50, 56); stroke-miterlimit: 10; transform-origin: 468.385px 228.455px;" id="ell23ld3pa1n" class="animable"></path><path d="M486,235.2l-2.2-1.53a13,13,0,0,1-2.75,1.85" style="fill: none; stroke: rgb(38, 50, 56); stroke-miterlimit: 10; transform-origin: 483.525px 234.595px;" id="ela2qvavjvxr" class="animable"></path><polygon points="469.73 252.72 472.35 260.74 497.65 249.88 495.03 244.6 469.73 252.72" style="fill: rgb(186, 157, 4); stroke: rgb(38, 50, 56); stroke-miterlimit: 10; transform-origin: 483.69px 252.67px;" id="elgwwdktuw0ah" class="animable"></polygon><g id="eln8eapfjcusn"><rect x="439.87" y="269.15" width="25.94" height="3.89" rx="1.81" style="fill: rgb(135, 135, 135); stroke: rgb(38, 50, 56); stroke-miterlimit: 10; transform-origin: 452.84px 271.095px; transform: rotate(50.26deg);" class="animable"></rect></g><g id="elz5x5nvzzyac"><rect x="446.45" y="260.55" width="7.93" height="3.38" style="fill: rgb(135, 135, 135); stroke: rgb(38, 50, 56); stroke-miterlimit: 10; transform-origin: 450.415px 262.24px; transform: rotate(50.26deg);" class="animable"></rect></g><g id="el9y2z1f3f2c6"><rect x="457.2" y="273.47" width="7.93" height="3.38" style="fill: rgb(135, 135, 135); stroke: rgb(38, 50, 56); stroke-miterlimit: 10; transform-origin: 461.165px 275.16px; transform: rotate(50.26deg);" class="animable"></rect></g><g id="ellni8utx9k4"><path d="M438.32,261.65h5.51a1.92,1.92,0,0,1,1.92,1.92V276a0,0,0,0,1,0,0H436.4a0,0,0,0,1,0,0V263.58A1.92,1.92,0,0,1,438.32,261.65Z" style="fill: rgb(135, 135, 135); stroke: rgb(38, 50, 56); stroke-miterlimit: 10; transform-origin: 441.075px 268.825px; transform: rotate(50.26deg);" class="animable"></path></g><g id="elvuocksn27jo"><path d="M449.67,275.3h5.51a1.92,1.92,0,0,1,1.92,1.92v12.44a0,0,0,0,1,0,0h-9.35a0,0,0,0,1,0,0V277.22A1.92,1.92,0,0,1,449.67,275.3Z" style="fill: rgb(135, 135, 135); stroke: rgb(38, 50, 56); stroke-miterlimit: 10; transform-origin: 452.425px 282.48px; transform: rotate(50.26deg);" class="animable"></path></g><g id="elmbhf96cmcx"><rect x="444.57" y="271.32" width="4.48" height="8.83" style="fill: rgb(135, 135, 135); stroke: rgb(38, 50, 56); stroke-miterlimit: 10; transform-origin: 446.81px 275.735px; transform: rotate(50.26deg);" class="animable"></rect></g><g id="el83fa1cxkspl"><rect x="439.15" y="276.92" width="8.19" height="2.53" style="fill: rgb(135, 135, 135); stroke: rgb(38, 50, 56); stroke-miterlimit: 10; transform-origin: 443.245px 278.185px; transform: rotate(50.26deg);" class="animable"></rect></g><polygon points="424.39 294.63 412.67 280.53 432.69 269.72 438.67 276.92 424.39 294.63" style="fill: rgb(135, 135, 135); stroke: rgb(38, 50, 56); stroke-miterlimit: 10; transform-origin: 425.67px 282.175px;" id="el9ciho59k47h" class="animable"></polygon><path d="M424,294.69c-.65.54-3.76-2.15-7-6s-5.27-7.41-4.62-7.95,3.76,2.15,7,6S424.65,294.15,424,294.69Z" style="fill: rgb(135, 135, 135); stroke: rgb(38, 50, 56); stroke-miterlimit: 10; transform-origin: 418.19px 287.715px;" id="el2w1a5puuksp" class="animable"></path><polygon points="435.73 308.28 424.01 294.18 444.04 283.37 450.02 290.56 435.73 308.28" style="fill: rgb(135, 135, 135); stroke: rgb(38, 50, 56); stroke-miterlimit: 10; transform-origin: 437.015px 295.825px;" id="elg0rgwgakvml" class="animable"></polygon><path d="M435.35,308.34c-.65.54-3.77-2.15-7-6s-5.27-7.41-4.63-7.95,3.77,2.15,7,6S436,307.8,435.35,308.34Z" style="fill: rgb(135, 135, 135); stroke: rgb(38, 50, 56); stroke-miterlimit: 10; transform-origin: 429.536px 301.365px;" id="elygbxxvfy78" class="animable"></path><g id="elqqtn8d3ln1b"><rect x="445.97" y="270.99" width="8.19" height="2.53" style="fill: rgb(135, 135, 135); stroke: rgb(38, 50, 56); stroke-miterlimit: 10; transform-origin: 450.065px 272.255px; transform: rotate(50.26deg);" class="animable"></rect></g><path d="M478.31,296.45,469.15,294s-2.66,11.55-2.58,11.1,8.37,2.6,8.37,2.6Z" style="fill: rgb(186, 157, 4); stroke: rgb(38, 50, 56); stroke-miterlimit: 10; transform-origin: 472.439px 300.85px;" id="elud86iuxs9aj" class="animable"></path><path d="M487.36,258.05s-5.53,4.09-4.31,10.51,10.2,30.2,10.2,30.2-15.14-3.86-16.17-3.12-3.94,11-2.14,12.09,20.09,7.85,29.25,9.36,12.67.41,13.35-1-6.9-30.86-8.22-36.69-4.39-17.56-7.5-20.8-5.15-3.73-8.12-3.16" style="fill: rgb(186, 157, 4); stroke: rgb(38, 50, 56); stroke-miterlimit: 10; transform-origin: 495.974px 286.525px;" id="elbxqxf7ubu4" class="animable"></path><path d="M493.25,298.76s9.79,1.3,12.82,3.17" style="fill: none; stroke: rgb(38, 50, 56); stroke-miterlimit: 10; transform-origin: 499.66px 300.345px;" id="elgyw3ydd7r7s" class="animable"></path><path d="M505.72,299.44s3.45,2.09,3.58,4.08" style="fill: none; stroke: rgb(38, 50, 56); stroke-miterlimit: 10; transform-origin: 507.51px 301.48px;" id="el4kz4rcyrzqt" class="animable"></path><path d="M469.15,294s-5.66-2.45-6.33-3-5-7.2-7.1-9.36-7.32-5.3-8.5-4.58,0,2,1.38,2.65a19.78,19.78,0,0,1,4.31,3.29,8.67,8.67,0,0,1,.72,2.09s-7.63-1.56-9.55-1.88-4.23-.08-4.4.95,0,.91.42,1.13a2.82,2.82,0,0,0,.3,2.78c1,1.23,4.9,2.47,6.55,3.5a16.69,16.69,0,0,1,3.5,3.61,23.7,23.7,0,0,1-4-.5c-1.6-.42-3.84-2.46-4.26-1.77s1.95,3.81,3.33,4.65a59.59,59.59,0,0,0,11.85,3.61c2.38.24,9.28,2.59,9.28,2.59Z" style="fill: rgb(255, 255, 255); stroke: rgb(38, 50, 56); stroke-miterlimit: 10; transform-origin: 454.382px 290.357px;" id="el5g47robv8ye" class="animable"></path><path d="M440.1,285.31s8.81,2.66,11.52,4.63" style="fill: none; stroke: rgb(38, 50, 56); stroke-miterlimit: 10; transform-origin: 445.86px 287.625px;" id="el35v4uoivm2" class="animable"></path><line x1="453.63" y1="285.11" x2="455.8" y2="286.68" style="fill: rgb(255, 255, 255); stroke: rgb(38, 50, 56); stroke-miterlimit: 10; transform-origin: 454.715px 285.895px;" id="elji9qvhoocp9" class="animable"></line></g><g id="freepik--door-1--inject-53" class="animable animator-active" style="transform-origin: 390.222px 219.658px;"><polygon points="186.45 163.98 186.45 164.27 186.34 164.02 186.45 163.98" style="fill: rgb(38, 50, 56); stroke: rgb(38, 50, 56); stroke-miterlimit: 10; transform-origin: 186.395px 164.125px;" id="el5y5w6wkw9v" class="animable"></polygon><polygon points="287.8 405.63 287.57 405.72 263.06 347.2 287.8 405.63" style="fill: rgb(38, 50, 56); stroke: rgb(38, 50, 56); stroke-miterlimit: 10; transform-origin: 275.43px 376.46px;" id="eljflkno5x94n" class="animable"></polygon><polygon points="397.43 363.22 292.84 403.68 292.83 403.68 302.36 304.67 229.32 147.15 286.32 124.79 397.43 363.22" style="fill: rgb(38, 50, 56); stroke: rgb(38, 50, 56); stroke-miterlimit: 10; transform-origin: 313.375px 264.235px;" id="eluqfm79gza3k" class="animable"></polygon><polygon points="302.36 304.67 297.74 306.24 224.79 148.93 188.7 71.1 193.33 69.53 229.32 147.15 302.36 304.67" style="fill: rgb(191, 191, 191); stroke: rgb(38, 50, 56); stroke-miterlimit: 10; transform-origin: 245.53px 187.885px;" id="eldt6ll4279bk" class="animable"></polygon><polygon points="292.83 403.68 292.73 404.77 288.1 406.33 287.88 405.6 288.18 405.48 292.83 403.68" style="fill: rgb(191, 191, 191); stroke: rgb(38, 50, 56); stroke-miterlimit: 10; transform-origin: 290.355px 405.005px;" id="ellfv02rt77m" class="animable"></polygon><path d="M287.88,405.6l-.08,0,.3.7.08-.85Z" style="fill: rgb(191, 191, 191); stroke: rgb(38, 50, 56); stroke-miterlimit: 10; transform-origin: 287.99px 405.875px;" id="eleoajxo2zct" class="animable"></path><path d="M224.79,148.93,188.7,71.1,186.45,164v.29L263.06,347.2l24.74,58.43.08,0,.3-.12,9.56-99.24Zm55,227-2.32-5.49L233,265.38l-37.38-88.26.32-16.86L197,101.51l1.91,4.11,21,45.23,19.74,42.57h0l.24.52,47.39,102.2Z" style="fill: rgb(191, 191, 191); stroke: rgb(38, 50, 56); stroke-miterlimit: 10; transform-origin: 242.095px 238.365px;" id="elyawcaehgpq" class="animable"></path><path d="M239.65,193.42h0l-1.53,16.5c-2.7,1.32-3.52,5.49-1.84,9.52a10.1,10.1,0,0,0,.81,1.57l-.94,10.11L233,265.38l-37.38-88.26.32-16.86L197,101.51l1.91,4.11,21,45.23Z" style="fill: rgb(191, 191, 191); stroke: rgb(38, 50, 56); stroke-miterlimit: 10; transform-origin: 217.635px 183.445px;" id="elevj8e80bx1v" class="animable"></path><polygon points="287.28 296.15 279.78 375.92 277.46 370.43 232.97 265.38 244.16 291.54 246.58 266.29 251.14 218.56 239.89 193.95 287.28 296.15" style="fill: rgb(191, 191, 191); stroke: rgb(38, 50, 56); stroke-miterlimit: 10; transform-origin: 260.125px 284.935px;" id="elzmg6h1rkr5l" class="animable"></polygon><polygon points="302.36 304.67 292.83 403.68 288.18 405.48 297.74 306.24 302.36 304.67" style="fill: rgb(191, 191, 191); stroke: rgb(38, 50, 56); stroke-miterlimit: 10; transform-origin: 295.27px 355.075px;" id="eluwsguye2s8f" class="animable"></polygon><polygon points="288.18 405.48 292.83 403.68 292.73 404.77 288.1 406.33 288.18 405.48" style="fill: rgb(191, 191, 191); stroke: rgb(38, 50, 56); stroke-miterlimit: 10; transform-origin: 290.465px 405.005px;" id="elngynmmle2xb" class="animable"></polygon><polygon points="302.36 304.67 292.84 403.68 292.83 403.68 302.36 304.67" style="fill: rgb(191, 191, 191); stroke: rgb(38, 50, 56); stroke-miterlimit: 10; transform-origin: 297.595px 354.175px;" id="el7dolv5yehli" class="animable"></polygon><path d="M251.14,218.56l-4.56,47.73-2.42,25.25L233,265.38l3.18-34.25.94-10.11c1.93,3.2,5.11,4.9,7.64,3.89a4.58,4.58,0,0,0,2.59-2.94h0c1.79-1.27,2.27-4.37,1-7.37s-3.93-5-6.16-4.55h0a4.71,4.71,0,0,0-3.77-.24l-.28.13,1.53-16.5.24.52Z" style="fill: rgb(191, 191, 191); stroke: rgb(38, 50, 56); stroke-miterlimit: 10; transform-origin: 242.07px 242.49px;" id="elh7vmvjrlbtm" class="animable"></path><path d="M247.32,222a9.66,9.66,0,0,0-.47-6.7,9.86,9.86,0,0,0-4.67-5.22c2.23-.4,4.88,1.5,6.16,4.55S249.11,220.69,247.32,222Z" style="fill: rgb(191, 191, 191); stroke: rgb(38, 50, 56); stroke-miterlimit: 10; transform-origin: 245.616px 216.014px;" id="elbmm1bib05p6" class="animable"></path><path d="M246.85,215.26a9.86,9.86,0,0,0-4.67-5.22h0a4.71,4.71,0,0,0-3.77-.24l-.28.13c-2.7,1.32-3.52,5.49-1.84,9.52a10.1,10.1,0,0,0,.81,1.57c1.93,3.2,5.11,4.9,7.64,3.89a4.58,4.58,0,0,0,2.59-2.94h0A9.66,9.66,0,0,0,246.85,215.26Zm-5.63,5a1.53,1.53,0,0,1-.87,1.1c-.91.36-2.1-.4-2.64-1.71s-.25-2.66.66-3a1.42,1.42,0,0,1,1,0,3,3,0,0,1,1.59,1.68A3.21,3.21,0,0,1,241.22,220.23Z" style="fill: rgb(255, 255, 255); stroke: rgb(38, 50, 56); stroke-miterlimit: 10; transform-origin: 241.568px 217.358px;" id="elp16czvfe22n" class="animable"></path><path d="M241.22,220.23a1.53,1.53,0,0,1-.87,1.1c-.91.36-2.1-.4-2.64-1.71s-.25-2.66.66-3a1.42,1.42,0,0,1,1,0,3,3,0,0,1,1.59,1.68A3.21,3.21,0,0,1,241.22,220.23Z" style="fill: rgb(255, 255, 255); stroke: rgb(38, 50, 56); stroke-miterlimit: 10; transform-origin: 239.354px 218.974px;" id="el1vmmu9k7q3l" class="animable"></path><path d="M351.16,353.23c15.65.52,29.23-9.88,42.63-18,42.69-25.88,99-30.93,142.94-7.29,15.4,8.28,28.73,21.33,31.19,39.41,1.39,10.13-1.44,21.06-8.62,28.35s-18.86,10.25-28.19,6.06c-4.24-1.9-8-5.34-9.32-9.78s.14-9.85,4.1-12.27c3.22-2,7.27-1.73,11-2.15s8-2.09,9-5.74a9.45,9.45,0,0,0-.2-4.6c-6-25.4-40.88-39.34-63.87-42.5-25.89-3.55-52.37,2.95-76,14.11-8.75,4.13-17.23,8.91-26.35,12.12s-19.15,4.78-28.49,2.27Z" style="fill: rgb(38, 50, 56); stroke: rgb(38, 50, 56); stroke-miterlimit: 10; transform-origin: 459.621px 358.204px;" id="elc8095isu1g" class="animable"></path><path d="M251.21,156.81S268.75,137,262,120.58s-29.43-16.42-32.26-34,20.94-18.68,37.36-2.26,16.41,33.4,7.92,48.11S251.21,156.81,251.21,156.81Z" style="fill: rgb(186, 157, 4); transform-origin: 255.075px 114.739px;" id="elmqborhun6hf" class="animable"></path><path d="M311.9,382.18s24-11.27,37.79-.14,7.49,32.87,23.53,40.51S397,407.7,385.89,387.33s-27.44-25.14-43.95-21.12S311.9,382.18,311.9,382.18Z" style="fill: rgb(186, 157, 4); transform-origin: 351.506px 394.49px;" id="el4tyynxyubg8" class="animable"></path><path d="M288.15,183s32.83-3.39,47.55-43S351,73.16,370.23,65.23c14.4-5.93,16.41,4.53,10.75,14.15-17.29,29.4-28,62.78-53.34,86.75C318.43,174.84,301.69,186.46,288.15,183Z" style="fill: rgb(186, 157, 4); transform-origin: 336.029px 123.563px;" id="elpvm27mggx2" class="animable"></path><g id="elobejg1bl3o"><circle cx="308.1" cy="77.84" r="11.04" style="fill: rgb(38, 50, 56); transform-origin: 308.1px 77.84px; transform: rotate(-76.5deg);" class="animable"></circle></g><g id="el8k3lzniqmk"><circle cx="520.95" cy="183.28" r="11.04" style="fill: rgb(186, 157, 4); transform-origin: 520.95px 183.28px; transform: rotate(-76.78deg);" class="animable"></circle></g><g id="elcv7o90urpae"><circle cx="333.02" cy="344.22" r="11.04" style="fill: rgb(186, 157, 4); transform-origin: 333.02px 344.22px; transform: rotate(-76.65deg);" class="animable"></circle></g><circle cx="385.27" cy="276.04" r="7.98" style="fill: rgb(38, 50, 56); stroke: rgb(38, 50, 56); stroke-miterlimit: 10; transform-origin: 385.27px 276.04px;" id="elj525lsyd1vq" class="animable"></circle><path d="M327.62,128.5a6.79,6.79,0,1,1-6.79-6.79A6.8,6.8,0,0,1,327.62,128.5Z" style="fill: rgb(186, 157, 4); transform-origin: 320.83px 128.5px;" id="elpsuztjkql3" class="animable"></path><circle cx="526.75" cy="227.64" r="6.79" style="fill: rgb(38, 50, 56); transform-origin: 526.75px 227.64px;" id="elxlmwq1q7h38" class="animable"></circle><path d="M475.45,141.49c3.94,2,14.61,14.51,18.6,19.29a1.06,1.06,0,0,1-.87,1.73c-6.21-.31-22.65-1.33-26.59-3.3s-14.94-14.66-19.06-19.51a1.06,1.06,0,0,1,.87-1.74C454.75,138.34,471.5,139.52,475.45,141.49Z" style="fill: rgb(38, 50, 56); stroke: rgb(38, 50, 56); stroke-miterlimit: 10; transform-origin: 470.786px 150.235px;" id="elehlpagivvyd" class="animable"></path><path d="M458.29,111.31c3-3.21,18.1-9.83,23.82-12.27a1.06,1.06,0,0,1,1.41,1.33c-2.09,5.86-7.78,21.31-10.81,24.52S454.37,135,448.55,137.53a1.06,1.06,0,0,1-1.42-1.34C449.32,130.23,455.27,114.52,458.29,111.31Z" style="fill: rgb(38, 50, 56); stroke: rgb(38, 50, 56); stroke-miterlimit: 10; transform-origin: 465.322px 118.288px;" id="elrbu8kdexrw" class="animable"></path><path d="M417.45,120.85c1.63-4.1,13.22-15.8,17.64-20.17a1.06,1.06,0,0,1,1.8.72c.21,6.22.6,22.68-1,26.78S422.51,144.3,418,148.81a1.05,1.05,0,0,1-1.81-.72C416.06,141.74,415.82,125,417.45,120.85Z" style="fill: rgb(186, 157, 4); transform-origin: 426.593px 124.757px;" id="eliug2xkg45x" class="animable"></path><path d="M435.25,170.43c-3.84-2.18-13.84-15.26-17.56-20.25a1,1,0,0,1,.95-1.68c6.19.64,22.55,2.52,26.39,4.7s14.14,15.43,18,20.48a1.06,1.06,0,0,1-1,1.7C455.75,174.66,439.08,172.6,435.25,170.43Z" style="fill: rgb(186, 157, 4); transform-origin: 440.324px 161.931px;" id="elqp13k6g3mu" class="animable"></path><path d="M384.86,142.24c.85-4.33,10.1-18,13.65-23.06a1.05,1.05,0,0,1,1.9.38c1.35,6.07,4.74,22.18,3.89,26.51s-10.16,18.3-13.74,23.56a1.06,1.06,0,0,1-1.91-.38C387.33,163,384,146.57,384.86,142.24Z" style="fill: rgb(38, 50, 56); stroke: rgb(38, 50, 56); stroke-miterlimit: 10; transform-origin: 394.577px 144.403px;" id="el13b7ic95wy7g" class="animable"></path><path d="M411.45,187.72c-4.18-1.44-16.4-12.47-21-16.68a1.06,1.06,0,0,1,.63-1.84c6.2-.5,22.63-1.65,26.8-.21s16.74,12.57,21.45,16.84a1.06,1.06,0,0,1-.63,1.84C432.37,188.12,415.62,189.15,411.45,187.72Z" style="fill: rgb(38, 50, 56); stroke: rgb(38, 50, 56); stroke-miterlimit: 10; transform-origin: 414.89px 178.371px;" id="el3j1q8j9o28d" class="animable"></path><path d="M350.88,176.94c-.18-4.4,5.64-19.81,7.9-25.6a1.05,1.05,0,0,1,1.93-.08c2.73,5.59,9.79,20.47,10,24.87s-5.62,20.17-7.88,26.11a1.05,1.05,0,0,1-1.94.08C358.13,196.58,351.06,181.35,350.88,176.94Z" style="fill: rgb(186, 157, 4); transform-origin: 360.796px 176.796px;" id="elqvx15q639g9" class="animable"></path><path d="M387.33,215c-4.39-.43-18.85-8.3-24.28-11.33a1.06,1.06,0,0,1,.19-1.93c5.91-1.94,21.61-6.89,26-6.46s19.21,8.32,24.79,11.37a1.06,1.06,0,0,1-.19,1.94C407.78,210.48,391.72,215.39,387.33,215Z" style="fill: rgb(186, 157, 4); transform-origin: 388.546px 205.138px;" id="elfrvhg1hhulv" class="animable"></path><path d="M320.13,201.31c-.18-4.41,5.63-19.82,7.89-25.61a1.06,1.06,0,0,1,1.94-.08c2.72,5.59,9.78,20.47,10,24.88s-5.61,20.16-7.87,26.11a1.06,1.06,0,0,1-1.94.08C327.37,220.94,320.31,205.71,320.13,201.31Z" style="fill: rgb(38, 50, 56); stroke: rgb(38, 50, 56); stroke-miterlimit: 10; transform-origin: 330.046px 201.155px;" id="elk1ofqzjck1" class="animable"></path><path d="M356.58,239.33c-4.39-.43-18.85-8.3-24.28-11.33a1.06,1.06,0,0,1,.18-1.93c5.91-1.93,21.62-6.89,26-6.46s19.2,8.33,24.78,11.38a1.05,1.05,0,0,1-.18,1.93C377,234.84,361,239.76,356.58,239.33Z" style="fill: rgb(38, 50, 56); stroke: rgb(38, 50, 56); stroke-miterlimit: 10; transform-origin: 357.788px 229.47px;" id="eleiogxotxxua" class="animable"></path><path d="M298.26,235.76s28.25-1.85,52.14-22C366.72,200,377.46,181.07,393,166.58c24.84-23.15,62-37,95.89-29.88" style="fill: none; stroke: rgb(186, 157, 4); stroke-miterlimit: 10; stroke-width: 2px; transform-origin: 393.575px 185.293px;" id="el0z81o9oulhwl" class="animable"></path><path d="M513.25,130.07c4.37.61,18.47,9.12,23.76,12.39a1.06,1.06,0,0,1-.27,1.92c-6,1.67-21.9,5.92-26.27,5.3s-18.81-9.16-24.26-12.45a1.06,1.06,0,0,1,.28-1.93C492.63,133.65,508.88,129.45,513.25,130.07Z" style="fill: rgb(186, 157, 4); transform-origin: 511.606px 139.875px;" id="ele8cewv4lg8n" class="animable"></path><path d="M341.66,284.91c-1.1-8.73-15.28-7.64-15.28-7.64s7.64-9.83,2.18-15.28-11.46,7.64-11.46,7.64,2.18-14.19-4.37-20.74-13.64-1.64-9.82,10.37,0,13.1,0,13.1l-.12.24a39,39,0,0,1,.48,13.12s6-13.09,11.46-7.64-2.18,15.28-2.18,15.28,14.18-1.09,15.27,7.64c.52,4.17-2.43,6-5.66,6.72,8.95,2.88,17.42,7.85,17.86-.44.54-10.37-11.46-15.28-11.46-15.28S342.75,293.64,341.66,284.91Z" style="fill: rgb(186, 157, 4); transform-origin: 321.777px 278.909px;" id="elpmhmlh21o6" class="animable"></path><path d="M320,255.8s-5.38-17.55-1.79-19.7,8.95.36,9.66,6.45S320,255.8,320,255.8Z" style="fill: rgb(186, 157, 4); transform-origin: 322.443px 245.571px;" id="elzyi9gb3idbg" class="animable"></path><path d="M306.6,295s-1.81-13.77,1.13-14.92,6.63,1.38,6.4,6S306.6,295,306.6,295Z" style="fill: rgb(186, 157, 4); transform-origin: 310.095px 287.402px;" id="el06m1iss7r1ik" class="animable"></path><path d="M332.19,271.71s13.58-12.34,17.05-10,3.49,8.26-1.71,11.5S332.19,271.71,332.19,271.71Z" style="fill: rgb(186, 157, 4); transform-origin: 341.929px 267.879px;" id="ell64wx1ybfgd" class="animable"></path><path d="M339.74,295.28s18.32-1.09,19.56,2.89-2.45,8.62-8.54,7.89S339.74,295.28,339.74,295.28Z" style="fill: rgb(186, 157, 4); transform-origin: 349.64px 300.64px;" id="elnao45ag5ywb" class="animable"></path><path d="M303.21,297.07S321.53,296,322.77,300s-2.45,8.62-8.54,7.89S303.21,297.07,303.21,297.07Z" style="fill: rgb(186, 157, 4); transform-origin: 313.11px 302.453px;" id="el4373sr2s14w" class="animable"></path><path d="M279,170.07s-11.67-26.25,21.15-52.5S344.62,57.76,323.47,41s-43,0-45.22-11.67,39.38-24.79,62.72,0,13.13,52.51-7.29,70S276.06,135.8,279,170.07Z" style="fill: rgb(38, 50, 56); stroke: rgb(38, 50, 56); stroke-miterlimit: 10; transform-origin: 315.677px 92.655px;" id="elw44d7hg4vk" class="animable"></path><path d="M515.26,285.78s37.73,3,49.57,25.89,24.41,14.06,27.37,8.14c8.56-17.12-13.78-26.28-26.46-30.05a146.65,146.65,0,0,0-27.88-5.25C530.23,283.79,522.36,286.34,515.26,285.78Z" style="fill: rgb(38, 50, 56); stroke: rgb(38, 50, 56); stroke-miterlimit: 10; transform-origin: 554.682px 305.463px;" id="ela0peloj150e" class="animable"></path><path d="M395.22,102.7s20.29-31.94,9.07-55.17,3.43-28,9.94-26.77c18.54,3.38,12.13,27.93,8,40a132.35,132.35,0,0,1-10.87,23.79C407.13,91.69,399.35,96.19,395.22,102.7Z" style="fill: rgb(38, 50, 56); stroke: rgb(38, 50, 56); stroke-miterlimit: 10; transform-origin: 410.981px 61.6413px;" id="el3q9wthhme99" class="animable"></path></g><defs>     <filter id="active" height="200%">         <feMorphology in="SourceAlpha" result="DILATED" operator="dilate" radius="2"></feMorphology>                <feFlood flood-color="#32DFEC" flood-opacity="1" result="PINK"></feFlood>        <feComposite in="PINK" in2="DILATED" operator="in" result="OUTLINE"></feComposite>        <feMerge>            <feMergeNode in="OUTLINE"></feMergeNode>            <feMergeNode in="SourceGraphic"></feMergeNode>        </feMerge>    </filter>    <filter id="hover" height="200%">        <feMorphology in="SourceAlpha" result="DILATED" operator="dilate" radius="2"></feMorphology>                <feFlood flood-color="#ff0000" flood-opacity="0.5" result="PINK"></feFlood>        <feComposite in="PINK" in2="DILATED" operator="in" result="OUTLINE"></feComposite>        <feMerge>            <feMergeNode in="OUTLINE"></feMergeNode>            <feMergeNode in="SourceGraphic"></feMergeNode>        </feMerge>            <feColorMatrix type="matrix" values="0   0   0   0   0                0   1   0   0   0                0   0   0   0   0                0   0   0   1   0 "></feColorMatrix>    </filter></defs></svg>